<?xml version="1.0" standalone="no"?>
<!DOCTYPE svg PUBLIC "-//W3C//DTD SVG 1.1//EN" "http://www.w3.org/Graphics/SVG/1.1/DTD/svg11.dtd">
<!-- Created with WaveDrom -->
<svg xmlns="http://www.w3.org/2000/svg" width="1500" height="56" viewBox="0 0 1500 56" class="WaveDrom" xmlns:xlink="http://www.w3.org/1999/xlink"><g transform="translate(0.5,0.5)" text-anchor="middle" font-size="14" font-family="sans-serif" font-weight="normal"><g transform="translate(4,14)"><g stroke="black" stroke-width="1" stroke-linecap="round"><line x2="1491"/><line y2="26"/><line x2="1491" y1="26" y2="26"/><line x1="1491" x2="1491" y2="26"/><line x1="1470" x2="1470" y2="3"/><line x1="1470" x2="1470" y1="26" y2="23"/><line x1="1450" x2="1450" y2="3"/><line x1="1450" x2="1450" y1="26" y2="23"/><line x1="1429" x2="1429" y2="3"/><line x1="1429" x2="1429" y1="26" y2="23"/><line x1="1408" x2="1408" y2="3"/><line x1="1408" x2="1408" y1="26" y2="23"/><line x1="1387" x2="1387" y2="3"/><line x1="1387" x2="1387" y1="26" y2="23"/><line x1="1367" x2="1367" y2="3"/><line x1="1367" x2="1367" y1="26" y2="23"/><line x1="1346" x2="1346" y2="3"/><line x1="1346" x2="1346" y1="26" y2="23"/><line x1="1325" x2="1325" y2="3"/><line x1="1325" x2="1325" y1="26" y2="23"/><line x1="1305" x2="1305" y2="3"/><line x1="1305" x2="1305" y1="26" y2="23"/><line x1="1284" x2="1284" y2="3"/><line x1="1284" x2="1284" y1="26" y2="23"/><line x1="1263" x2="1263" y2="3"/><line x1="1263" x2="1263" y1="26" y2="23"/><line x1="1243" x2="1243" y2="3"/><line x1="1243" x2="1243" y1="26" y2="23"/><line x1="1222" x2="1222" y2="3"/><line x1="1222" x2="1222" y1="26" y2="23"/><line x1="1201" x2="1201" y2="3"/><line x1="1201" x2="1201" y1="26" y2="23"/><line x1="1180" x2="1180" y2="3"/><line x1="1180" x2="1180" y1="26" y2="23"/><line x1="1160" x2="1160" y2="3"/><line x1="1160" x2="1160" y1="26" y2="23"/><line x1="1139" x2="1139" y2="3"/><line x1="1139" x2="1139" y1="26" y2="23"/><line x1="1118" x2="1118" y2="3"/><line x1="1118" x2="1118" y1="26" y2="23"/><line x1="1098" x2="1098" y2="3"/><line x1="1098" x2="1098" y1="26" y2="23"/><line x1="1077" x2="1077" y2="3"/><line x1="1077" x2="1077" y1="26" y2="23"/><line x1="1056" x2="1056" y2="3"/><line x1="1056" x2="1056" y1="26" y2="23"/><line x1="1035" x2="1035" y2="3"/><line x1="1035" x2="1035" y1="26" y2="23"/><line x1="1015" x2="1015" y2="3"/><line x1="1015" x2="1015" y1="26" y2="23"/><line x1="994" x2="994" y2="3"/><line x1="994" x2="994" y1="26" y2="23"/><line x1="973" x2="973" y2="3"/><line x1="973" x2="973" y1="26" y2="23"/><line x1="953" x2="953" y2="3"/><line x1="953" x2="953" y1="26" y2="23"/><line x1="932" x2="932" y2="3"/><line x1="932" x2="932" y1="26" y2="23"/><line x1="911" x2="911" y2="3"/><line x1="911" x2="911" y1="26" y2="23"/><line x1="890" x2="890" y2="3"/><line x1="890" x2="890" y1="26" y2="23"/><line x1="870" x2="870" y2="3"/><line x1="870" x2="870" y1="26" y2="23"/><line x1="849" x2="849" y2="3"/><line x1="849" x2="849" y1="26" y2="23"/><line x1="828" x2="828" y2="3"/><line x1="828" x2="828" y1="26" y2="23"/><line x1="808" x2="808" y2="3"/><line x1="808" x2="808" y1="26" y2="23"/><line x1="787" x2="787" y2="3"/><line x1="787" x2="787" y1="26" y2="23"/><line x1="766" x2="766" y2="3"/><line x1="766" x2="766" y1="26" y2="23"/><line x1="746" x2="746" y2="3"/><line x1="746" x2="746" y1="26" y2="23"/><line x1="725" x2="725" y2="3"/><line x1="725" x2="725" y1="26" y2="23"/><line x1="704" x2="704" y2="3"/><line x1="704" x2="704" y1="26" y2="23"/><line x1="683" x2="683" y2="3"/><line x1="683" x2="683" y1="26" y2="23"/><line x1="663" x2="663" y2="3"/><line x1="663" x2="663" y1="26" y2="23"/><line x1="642" x2="642" y2="3"/><line x1="642" x2="642" y1="26" y2="23"/><line x1="621" x2="621" y2="3"/><line x1="621" x2="621" y1="26" y2="23"/><line x1="601" x2="601" y2="3"/><line x1="601" x2="601" y1="26" y2="23"/><line x1="580" x2="580" y2="3"/><line x1="580" x2="580" y1="26" y2="23"/><line x1="559" x2="559" y2="3"/><line x1="559" x2="559" y1="26" y2="23"/><line x1="538" x2="538" y2="3"/><line x1="538" x2="538" y1="26" y2="23"/><line x1="518" x2="518" y2="3"/><line x1="518" x2="518" y1="26" y2="23"/><line x1="497" x2="497" y2="3"/><line x1="497" x2="497" y1="26" y2="23"/><line x1="476" x2="476" y2="3"/><line x1="476" x2="476" y1="26" y2="23"/><line x1="456" x2="456" y2="3"/><line x1="456" x2="456" y1="26" y2="23"/><line x1="435" x2="435" y2="3"/><line x1="435" x2="435" y1="26" y2="23"/><line x1="414" x2="414" y2="3"/><line x1="414" x2="414" y1="26" y2="23"/><line x1="393" x2="393" y2="3"/><line x1="393" x2="393" y1="26" y2="23"/><line x1="373" x2="373" y2="3"/><line x1="373" x2="373" y1="26" y2="23"/><line x1="352" x2="352" y2="3"/><line x1="352" x2="352" y1="26" y2="23"/><line x1="331" x2="331" y2="3"/><line x1="331" x2="331" y1="26" y2="23"/><line x1="311" x2="311" y2="3"/><line x1="311" x2="311" y1="26" y2="23"/><line x1="290" x2="290" y2="3"/><line x1="290" x2="290" y1="26" y2="23"/><line x1="269" x2="269" y2="3"/><line x1="269" x2="269" y1="26" y2="23"/><line x1="249" x2="249" y2="3"/><line x1="249" x2="249" y1="26" y2="23"/><line x1="228" x2="228" y2="3"/><line x1="228" x2="228" y1="26" y2="23"/><line x1="207" x2="207" y2="3"/><line x1="207" x2="207" y1="26" y2="23"/><line x1="186" x2="186" y2="3"/><line x1="186" x2="186" y1="26" y2="23"/><line x1="166" x2="166" y2="26"/><line x1="145" x2="145" y2="3"/><line x1="145" x2="145" y1="26" y2="23"/><line x1="124" x2="124" y2="3"/><line x1="124" x2="124" y1="26" y2="23"/><line x1="104" x2="104" y2="3"/><line x1="104" x2="104" y1="26" y2="23"/><line x1="83" x2="83" y2="3"/><line x1="83" x2="83" y1="26" y2="23"/><line x1="62" x2="62" y2="3"/><line x1="62" x2="62" y1="26" y2="23"/><line x1="41" x2="41" y2="3"/><line x1="41" x2="41" y1="26" y2="23"/><line x1="21" x2="21" y2="3"/><line x1="21" x2="21" y1="26" y2="23"/></g><g><g><rect width="166" height="26" style="fill-opacity:0.1"/></g><g transform="translate(10,-3)"><text x="1470">0</text><text x="166">63</text><text x="145">64</text><text>71</text></g><g transform="translate(10,18)"><text x="818"><tspan>Payload</tspan></text><text x="72"><tspan>Command</tspan></text></g><g transform="translate(10,39)"><text x="818"><tspan>Trigger Mask</tspan></text><text x="72"><tspan>0xC0</tspan></text></g></g></g></g></svg>